ISO-10303-21;
HEADER;
/* Generated by software containing ST-Developer
 * from STEP Tools, Inc. (www.steptools.com) 
 */
/* OPTION: using custom renumber hook */

FILE_DESCRIPTION(
/* description */ ('STEP AP242 Edition 2',
'CAx-IF Rec.Pracs.---Representation and Presentation of Product Manufa
cturing Information (PMI)---4.0---2014-10-13',
'CAx-IF Rec.Pracs.---3D Tessellated Geometry---0.4---2014-09-14','2;1',
'CAx-IF Rec.Pracs.---User Defined Attributes---1.5---2016-08-15'),
/* implementation_level */ '2;1');

FILE_NAME(
/* name */ 'Noctua 40mm Fan Spacer',
/* time_stamp */ '2026-08-09T17:50:32Z',
/* author */ (''),
/* organization */ (''),
/* preprocessor_version */ 'ST-DEVELOPER v20',
/* originating_system */ 'ONSHAPE BY PTC INC, 1.219',
/* authorisation */ '  ');

FILE_SCHEMA (('AP242_MANAGED_MODEL_BASED_3D_ENGINEERING_MIM_LF { 1 0 10303 442 3 1 4 }'));
ENDSEC;

DATA;
#10=SHAPE_REPRESENTATION_RELATIONSHIP('','',#291,#11);
#11=ADVANCED_BREP_SHAPE_REPRESENTATION('',(#289),#487);
#12=CIRCLE('',#297,0.0022);
#13=CIRCLE('',#298,0.0022);
#14=CIRCLE('',#300,0.0022);
#15=CIRCLE('',#301,0.0022);
#16=CIRCLE('',#303,0.0022);
#17=CIRCLE('',#304,0.0022);
#18=CIRCLE('',#306,0.01845);
#19=CIRCLE('',#307,0.01845);
#20=CIRCLE('',#309,0.0022);
#21=CIRCLE('',#310,0.0022);
#22=CIRCLE('',#313,0.003);
#23=CIRCLE('',#314,0.003);
#24=CIRCLE('',#315,0.003);
#25=CIRCLE('',#316,0.003);
#26=CIRCLE('',#318,0.003);
#27=CIRCLE('',#319,0.003);
#28=CIRCLE('',#320,0.003);
#29=CIRCLE('',#321,0.003);
#30=CYLINDRICAL_SURFACE('',#296,0.0022);
#31=CYLINDRICAL_SURFACE('',#299,0.0022);
#32=CYLINDRICAL_SURFACE('',#302,0.0022);
#33=CYLINDRICAL_SURFACE('',#305,0.01845);
#34=CYLINDRICAL_SURFACE('',#308,0.0022);
#35=CYLINDRICAL_SURFACE('',#322,0.003);
#36=CYLINDRICAL_SURFACE('',#323,0.003);
#37=CYLINDRICAL_SURFACE('',#324,0.003);
#38=CYLINDRICAL_SURFACE('',#325,0.003);
#39=ORIENTED_EDGE('',*,*,#107,.F.);
#40=ORIENTED_EDGE('',*,*,#108,.T.);
#41=ORIENTED_EDGE('',*,*,#109,.T.);
#42=ORIENTED_EDGE('',*,*,#110,.T.);
#43=ORIENTED_EDGE('',*,*,#111,.T.);
#44=ORIENTED_EDGE('',*,*,#112,.T.);
#45=ORIENTED_EDGE('',*,*,#113,.F.);
#46=ORIENTED_EDGE('',*,*,#114,.T.);
#47=ORIENTED_EDGE('',*,*,#115,.T.);
#48=ORIENTED_EDGE('',*,*,#116,.T.);
#49=ORIENTED_EDGE('',*,*,#117,.F.);
#50=ORIENTED_EDGE('',*,*,#118,.T.);
#51=ORIENTED_EDGE('',*,*,#119,.T.);
#52=ORIENTED_EDGE('',*,*,#120,.F.);
#53=ORIENTED_EDGE('',*,*,#121,.T.);
#54=ORIENTED_EDGE('',*,*,#122,.F.);
#55=ORIENTED_EDGE('',*,*,#123,.T.);
#56=ORIENTED_EDGE('',*,*,#124,.F.);
#57=ORIENTED_EDGE('',*,*,#125,.T.);
#58=ORIENTED_EDGE('',*,*,#126,.F.);
#59=ORIENTED_EDGE('',*,*,#127,.T.);
#60=ORIENTED_EDGE('',*,*,#128,.F.);
#61=ORIENTED_EDGE('',*,*,#129,.T.);
#62=ORIENTED_EDGE('',*,*,#130,.T.);
#63=ORIENTED_EDGE('',*,*,#131,.F.);
#64=ORIENTED_EDGE('',*,*,#132,.T.);
#65=ORIENTED_EDGE('',*,*,#127,.F.);
#66=ORIENTED_EDGE('',*,*,#125,.F.);
#67=ORIENTED_EDGE('',*,*,#123,.F.);
#68=ORIENTED_EDGE('',*,*,#121,.F.);
#69=ORIENTED_EDGE('',*,*,#119,.F.);
#70=ORIENTED_EDGE('',*,*,#117,.T.);
#71=ORIENTED_EDGE('',*,*,#133,.T.);
#72=ORIENTED_EDGE('',*,*,#129,.F.);
#73=ORIENTED_EDGE('',*,*,#134,.T.);
#74=ORIENTED_EDGE('',*,*,#109,.F.);
#75=ORIENTED_EDGE('',*,*,#135,.T.);
#76=ORIENTED_EDGE('',*,*,#113,.T.);
#77=ORIENTED_EDGE('',*,*,#136,.T.);
#78=ORIENTED_EDGE('',*,*,#128,.T.);
#79=ORIENTED_EDGE('',*,*,#126,.T.);
#80=ORIENTED_EDGE('',*,*,#124,.T.);
#81=ORIENTED_EDGE('',*,*,#122,.T.);
#82=ORIENTED_EDGE('',*,*,#120,.T.);
#83=ORIENTED_EDGE('',*,*,#131,.T.);
#84=ORIENTED_EDGE('',*,*,#137,.T.);
#85=ORIENTED_EDGE('',*,*,#115,.F.);
#86=ORIENTED_EDGE('',*,*,#138,.T.);
#87=ORIENTED_EDGE('',*,*,#111,.F.);
#88=ORIENTED_EDGE('',*,*,#139,.T.);
#89=ORIENTED_EDGE('',*,*,#107,.T.);
#90=ORIENTED_EDGE('',*,*,#140,.T.);
#91=ORIENTED_EDGE('',*,*,#133,.F.);
#92=ORIENTED_EDGE('',*,*,#116,.F.);
#93=ORIENTED_EDGE('',*,*,#137,.F.);
#94=ORIENTED_EDGE('',*,*,#130,.F.);
#95=ORIENTED_EDGE('',*,*,#136,.F.);
#96=ORIENTED_EDGE('',*,*,#112,.F.);
#97=ORIENTED_EDGE('',*,*,#138,.F.);
#98=ORIENTED_EDGE('',*,*,#118,.F.);
#99=ORIENTED_EDGE('',*,*,#135,.F.);
#100=ORIENTED_EDGE('',*,*,#108,.F.);
#101=ORIENTED_EDGE('',*,*,#139,.F.);
#102=ORIENTED_EDGE('',*,*,#114,.F.);
#103=ORIENTED_EDGE('',*,*,#134,.F.);
#104=ORIENTED_EDGE('',*,*,#132,.F.);
#105=ORIENTED_EDGE('',*,*,#140,.F.);
#106=ORIENTED_EDGE('',*,*,#110,.F.);
#107=EDGE_CURVE('',#141,#142,#167,.T.);
#108=EDGE_CURVE('',#141,#143,#168,.F.);
#109=EDGE_CURVE('',#143,#144,#169,.T.);
#110=EDGE_CURVE('',#144,#142,#170,.T.);
#111=EDGE_CURVE('',#145,#146,#171,.T.);
#112=EDGE_CURVE('',#146,#147,#172,.F.);
#113=EDGE_CURVE('',#148,#147,#173,.T.);
#114=EDGE_CURVE('',#148,#145,#174,.T.);
#115=EDGE_CURVE('',#149,#150,#175,.T.);
#116=EDGE_CURVE('',#150,#151,#176,.F.);
#117=EDGE_CURVE('',#152,#151,#177,.T.);
#118=EDGE_CURVE('',#152,#149,#178,.T.);
#119=EDGE_CURVE('',#153,#153,#12,.T.);
#120=EDGE_CURVE('',#154,#154,#13,.T.);
#121=EDGE_CURVE('',#155,#155,#14,.T.);
#122=EDGE_CURVE('',#156,#156,#15,.T.);
#123=EDGE_CURVE('',#157,#157,#16,.T.);
#124=EDGE_CURVE('',#158,#158,#17,.T.);
#125=EDGE_CURVE('',#159,#159,#18,.T.);
#126=EDGE_CURVE('',#160,#160,#19,.T.);
#127=EDGE_CURVE('',#161,#161,#20,.T.);
#128=EDGE_CURVE('',#162,#162,#21,.T.);
#129=EDGE_CURVE('',#163,#164,#179,.T.);
#130=EDGE_CURVE('',#164,#165,#180,.T.);
#131=EDGE_CURVE('',#166,#165,#181,.T.);
#132=EDGE_CURVE('',#166,#163,#182,.F.);
#133=EDGE_CURVE('',#151,#164,#22,.T.);
#134=EDGE_CURVE('',#163,#144,#23,.T.);
#135=EDGE_CURVE('',#143,#148,#24,.T.);
#136=EDGE_CURVE('',#147,#152,#25,.T.);
#137=EDGE_CURVE('',#165,#150,#26,.F.);
#138=EDGE_CURVE('',#149,#146,#27,.F.);
#139=EDGE_CURVE('',#145,#141,#28,.F.);
#140=EDGE_CURVE('',#142,#166,#29,.F.);
#141=VERTEX_POINT('',#413);
#142=VERTEX_POINT('',#414);
#143=VERTEX_POINT('',#416);
#144=VERTEX_POINT('',#418);
#145=VERTEX_POINT('',#422);
#146=VERTEX_POINT('',#423);
#147=VERTEX_POINT('',#425);
#148=VERTEX_POINT('',#427);
#149=VERTEX_POINT('',#431);
#150=VERTEX_POINT('',#432);
#151=VERTEX_POINT('',#434);
#152=VERTEX_POINT('',#436);
#153=VERTEX_POINT('',#440);
#154=VERTEX_POINT('',#442);
#155=VERTEX_POINT('',#445);
#156=VERTEX_POINT('',#447);
#157=VERTEX_POINT('',#450);
#158=VERTEX_POINT('',#452);
#159=VERTEX_POINT('',#455);
#160=VERTEX_POINT('',#457);
#161=VERTEX_POINT('',#460);
#162=VERTEX_POINT('',#462);
#163=VERTEX_POINT('',#465);
#164=VERTEX_POINT('',#466);
#165=VERTEX_POINT('',#468);
#166=VERTEX_POINT('',#470);
#167=LINE('',#412,#183);
#168=LINE('',#415,#184);
#169=LINE('',#417,#185);
#170=LINE('',#419,#186);
#171=LINE('',#421,#187);
#172=LINE('',#424,#188);
#173=LINE('',#426,#189);
#174=LINE('',#428,#190);
#175=LINE('',#430,#191);
#176=LINE('',#433,#192);
#177=LINE('',#435,#193);
#178=LINE('',#437,#194);
#179=LINE('',#464,#195);
#180=LINE('',#467,#196);
#181=LINE('',#469,#197);
#182=LINE('',#471,#198);
#183=VECTOR('',#330,1.);
#184=VECTOR('',#331,1.);
#185=VECTOR('',#332,1.);
#186=VECTOR('',#333,1.);
#187=VECTOR('',#336,1.);
#188=VECTOR('',#337,1.);
#189=VECTOR('',#338,1.);
#190=VECTOR('',#339,1.);
#191=VECTOR('',#342,1.);
#192=VECTOR('',#343,1.);
#193=VECTOR('',#344,1.);
#194=VECTOR('',#345,1.);
#195=VECTOR('',#378,1.);
#196=VECTOR('',#379,1.);
#197=VECTOR('',#380,1.);
#198=VECTOR('',#381,1.);
#199=EDGE_LOOP('',(#39,#40,#41,#42));
#200=EDGE_LOOP('',(#43,#44,#45,#46));
#201=EDGE_LOOP('',(#47,#48,#49,#50));
#202=EDGE_LOOP('',(#51));
#203=EDGE_LOOP('',(#52));
#204=EDGE_LOOP('',(#53));
#205=EDGE_LOOP('',(#54));
#206=EDGE_LOOP('',(#55));
#207=EDGE_LOOP('',(#56));
#208=EDGE_LOOP('',(#57));
#209=EDGE_LOOP('',(#58));
#210=EDGE_LOOP('',(#59));
#211=EDGE_LOOP('',(#60));
#212=EDGE_LOOP('',(#61,#62,#63,#64));
#213=EDGE_LOOP('',(#65));
#214=EDGE_LOOP('',(#66));
#215=EDGE_LOOP('',(#67));
#216=EDGE_LOOP('',(#68));
#217=EDGE_LOOP('',(#69));
#218=EDGE_LOOP('',(#70,#71,#72,#73,#74,#75,#76,#77));
#219=EDGE_LOOP('',(#78));
#220=EDGE_LOOP('',(#79));
#221=EDGE_LOOP('',(#80));
#222=EDGE_LOOP('',(#81));
#223=EDGE_LOOP('',(#82));
#224=EDGE_LOOP('',(#83,#84,#85,#86,#87,#88,#89,#90));
#225=EDGE_LOOP('',(#91,#92,#93,#94));
#226=EDGE_LOOP('',(#95,#96,#97,#98));
#227=EDGE_LOOP('',(#99,#100,#101,#102));
#228=EDGE_LOOP('',(#103,#104,#105,#106));
#229=FACE_BOUND('',#199,.T.);
#230=FACE_BOUND('',#200,.T.);
#231=FACE_BOUND('',#201,.T.);
#232=FACE_BOUND('',#202,.T.);
#233=FACE_BOUND('',#203,.T.);
#234=FACE_BOUND('',#204,.T.);
#235=FACE_BOUND('',#205,.T.);
#236=FACE_BOUND('',#206,.T.);
#237=FACE_BOUND('',#207,.T.);
#238=FACE_BOUND('',#208,.T.);
#239=FACE_BOUND('',#209,.T.);
#240=FACE_BOUND('',#210,.T.);
#241=FACE_BOUND('',#211,.T.);
#242=FACE_BOUND('',#212,.T.);
#243=FACE_BOUND('',#213,.T.);
#244=FACE_BOUND('',#214,.T.);
#245=FACE_BOUND('',#215,.T.);
#246=FACE_BOUND('',#216,.T.);
#247=FACE_BOUND('',#217,.T.);
#248=FACE_BOUND('',#218,.T.);
#249=FACE_BOUND('',#219,.T.);
#250=FACE_BOUND('',#220,.T.);
#251=FACE_BOUND('',#221,.T.);
#252=FACE_BOUND('',#222,.T.);
#253=FACE_BOUND('',#223,.T.);
#254=FACE_BOUND('',#224,.T.);
#255=FACE_BOUND('',#225,.T.);
#256=FACE_BOUND('',#226,.T.);
#257=FACE_BOUND('',#227,.T.);
#258=FACE_BOUND('',#228,.T.);
#259=PLANE('',#293);
#260=PLANE('',#294);
#261=PLANE('',#295);
#262=PLANE('',#311);
#263=PLANE('',#312);
#264=PLANE('',#317);
#265=ADVANCED_FACE('',(#229),#259,.T.);
#266=ADVANCED_FACE('',(#230),#260,.F.);
#267=ADVANCED_FACE('',(#231),#261,.F.);
#268=ADVANCED_FACE('',(#232,#233),#30,.F.);
#269=ADVANCED_FACE('',(#234,#235),#31,.F.);
#270=ADVANCED_FACE('',(#236,#237),#32,.F.);
#271=ADVANCED_FACE('',(#238,#239),#33,.F.);
#272=ADVANCED_FACE('',(#240,#241),#34,.F.);
#273=ADVANCED_FACE('',(#242),#262,.T.);
#274=ADVANCED_FACE('',(#243,#244,#245,#246,#247,#248),#263,.T.);
#275=ADVANCED_FACE('',(#249,#250,#251,#252,#253,#254),#264,.F.);
#276=ADVANCED_FACE('',(#255),#35,.T.);
#277=ADVANCED_FACE('',(#256),#36,.T.);
#278=ADVANCED_FACE('',(#257),#37,.T.);
#279=ADVANCED_FACE('',(#258),#38,.T.);
#280=CLOSED_SHELL('',(#265,#266,#267,#268,#269,#270,#271,#272,#273,#274,
#275,#276,#277,#278,#279));
#281=STYLED_ITEM('',(#282),#289);
#282=PRESENTATION_STYLE_ASSIGNMENT((#283));
#283=SURFACE_STYLE_USAGE(.BOTH.,#284);
#284=SURFACE_SIDE_STYLE('',(#285));
#285=SURFACE_STYLE_FILL_AREA(#286);
#286=FILL_AREA_STYLE('',(#287));
#287=FILL_AREA_STYLE_COLOUR('',#288);
#288=COLOUR_RGB('',0.615686274509804,0.811764705882353,0.929411764705882);
#289=MANIFOLD_SOLID_BREP('Part 1',#280);
#290=SHAPE_DEFINITION_REPRESENTATION(#492,#291);
#291=SHAPE_REPRESENTATION('Part 1',(#292),#487);
#292=AXIS2_PLACEMENT_3D('',#410,#326,#327);
#293=AXIS2_PLACEMENT_3D('',#411,#328,#329);
#294=AXIS2_PLACEMENT_3D('',#420,#334,#335);
#295=AXIS2_PLACEMENT_3D('',#429,#340,#341);
#296=AXIS2_PLACEMENT_3D('',#438,#346,#347);
#297=AXIS2_PLACEMENT_3D('',#439,#348,#349);
#298=AXIS2_PLACEMENT_3D('',#441,#350,#351);
#299=AXIS2_PLACEMENT_3D('',#443,#352,#353);
#300=AXIS2_PLACEMENT_3D('',#444,#354,#355);
#301=AXIS2_PLACEMENT_3D('',#446,#356,#357);
#302=AXIS2_PLACEMENT_3D('',#448,#358,#359);
#303=AXIS2_PLACEMENT_3D('',#449,#360,#361);
#304=AXIS2_PLACEMENT_3D('',#451,#362,#363);
#305=AXIS2_PLACEMENT_3D('',#453,#364,#365);
#306=AXIS2_PLACEMENT_3D('',#454,#366,#367);
#307=AXIS2_PLACEMENT_3D('',#456,#368,#369);
#308=AXIS2_PLACEMENT_3D('',#458,#370,#371);
#309=AXIS2_PLACEMENT_3D('',#459,#372,#373);
#310=AXIS2_PLACEMENT_3D('',#461,#374,#375);
#311=AXIS2_PLACEMENT_3D('',#463,#376,#377);
#312=AXIS2_PLACEMENT_3D('',#472,#382,#383);
#313=AXIS2_PLACEMENT_3D('',#473,#384,#385);
#314=AXIS2_PLACEMENT_3D('',#474,#386,#387);
#315=AXIS2_PLACEMENT_3D('',#475,#388,#389);
#316=AXIS2_PLACEMENT_3D('',#476,#390,#391);
#317=AXIS2_PLACEMENT_3D('',#477,#392,#393);
#318=AXIS2_PLACEMENT_3D('',#478,#394,#395);
#319=AXIS2_PLACEMENT_3D('',#479,#396,#397);
#320=AXIS2_PLACEMENT_3D('',#480,#398,#399);
#321=AXIS2_PLACEMENT_3D('',#481,#400,#401);
#322=AXIS2_PLACEMENT_3D('',#482,#402,#403);
#323=AXIS2_PLACEMENT_3D('',#483,#404,#405);
#324=AXIS2_PLACEMENT_3D('',#484,#406,#407);
#325=AXIS2_PLACEMENT_3D('',#485,#408,#409);
#326=DIRECTION('',(0.,0.,1.));
#327=DIRECTION('',(1.,0.,0.));
#328=DIRECTION('',(1.73907115386146E-16,-1.,0.));
#329=DIRECTION('',(1.,1.73907115386146E-16,0.));
#330=DIRECTION('',(-1.,-1.73907115386146E-16,0.));
#331=DIRECTION('',(0.,0.,-1.));
#332=DIRECTION('',(-1.,-1.73907115386146E-16,0.));
#333=DIRECTION('',(0.,0.,-1.));
#334=DIRECTION('',(-1.,0.,0.));
#335=DIRECTION('',(0.,0.,1.));
#336=DIRECTION('',(0.,1.,0.));
#337=DIRECTION('',(0.,0.,-1.));
#338=DIRECTION('',(0.,1.,0.));
#339=DIRECTION('',(0.,0.,-1.));
#340=DIRECTION('',(1.73907115386146E-16,-1.,0.));
#341=DIRECTION('',(1.,1.73907115386146E-16,0.));
#342=DIRECTION('',(-1.,-1.73907115386146E-16,0.));
#343=DIRECTION('',(0.,0.,-1.));
#344=DIRECTION('',(-1.,-1.73907115386146E-16,0.));
#345=DIRECTION('',(0.,0.,-1.));
#346=DIRECTION('',(0.,0.,-1.));
#347=DIRECTION('',(-1.,0.,0.));
#348=DIRECTION('',(0.,0.,1.));
#349=DIRECTION('',(1.,0.,0.));
#350=DIRECTION('',(0.,0.,1.));
#351=DIRECTION('',(1.,0.,0.));
#352=DIRECTION('',(0.,0.,-1.));
#353=DIRECTION('',(-1.,0.,0.));
#354=DIRECTION('',(0.,0.,1.));
#355=DIRECTION('',(1.,0.,0.));
#356=DIRECTION('',(0.,0.,1.));
#357=DIRECTION('',(1.,0.,0.));
#358=DIRECTION('',(0.,0.,-1.));
#359=DIRECTION('',(-1.,0.,0.));
#360=DIRECTION('',(0.,0.,1.));
#361=DIRECTION('',(1.,0.,0.));
#362=DIRECTION('',(0.,0.,1.));
#363=DIRECTION('',(1.,0.,0.));
#364=DIRECTION('',(0.,0.,-1.));
#365=DIRECTION('',(-1.,0.,0.));
#366=DIRECTION('',(0.,0.,1.));
#367=DIRECTION('',(1.,0.,0.));
#368=DIRECTION('',(0.,0.,1.));
#369=DIRECTION('',(1.,0.,0.));
#370=DIRECTION('',(0.,0.,-1.));
#371=DIRECTION('',(-1.,0.,0.));
#372=DIRECTION('',(0.,0.,1.));
#373=DIRECTION('',(1.,0.,0.));
#374=DIRECTION('',(0.,0.,1.));
#375=DIRECTION('',(1.,0.,0.));
#376=DIRECTION('',(-1.,0.,0.));
#377=DIRECTION('',(0.,0.,1.));
#378=DIRECTION('',(0.,1.,0.));
#379=DIRECTION('',(0.,0.,-1.));
#380=DIRECTION('',(0.,1.,0.));
#381=DIRECTION('',(0.,0.,-1.));
#382=DIRECTION('',(0.,0.,1.));
#383=DIRECTION('',(1.,0.,0.));
#384=DIRECTION('',(0.,0.,1.));
#385=DIRECTION('',(1.,0.,0.));
#386=DIRECTION('',(0.,0.,1.));
#387=DIRECTION('',(1.,0.,0.));
#388=DIRECTION('',(0.,0.,1.));
#389=DIRECTION('',(1.,0.,0.));
#390=DIRECTION('',(0.,0.,1.));
#391=DIRECTION('',(1.,0.,0.));
#392=DIRECTION('',(0.,0.,1.));
#393=DIRECTION('',(1.,0.,0.));
#394=DIRECTION('',(0.,0.,1.));
#395=DIRECTION('',(1.,0.,0.));
#396=DIRECTION('',(0.,0.,1.));
#397=DIRECTION('',(1.,0.,0.));
#398=DIRECTION('',(0.,0.,1.));
#399=DIRECTION('',(1.,0.,0.));
#400=DIRECTION('',(0.,0.,1.));
#401=DIRECTION('',(1.,0.,0.));
#402=DIRECTION('',(0.,0.,1.));
#403=DIRECTION('',(1.,0.,0.));
#404=DIRECTION('',(0.,0.,-1.));
#405=DIRECTION('',(-1.,0.,0.));
#406=DIRECTION('',(0.,0.,1.));
#407=DIRECTION('',(1.,0.,0.));
#408=DIRECTION('',(0.,0.,-1.));
#409=DIRECTION('',(-1.,0.,0.));
#410=CARTESIAN_POINT('',(0.,0.,0.));
#411=CARTESIAN_POINT('',(0.,-0.01995,0.0145));
#412=CARTESIAN_POINT('',(0.,-0.01995,0.));
#413=CARTESIAN_POINT('',(0.01695,-0.01995,0.));
#414=CARTESIAN_POINT('',(-0.01695,-0.01995,0.));
#415=CARTESIAN_POINT('',(0.01695,-0.01995,0.0145));
#416=CARTESIAN_POINT('',(0.01695,-0.01995,0.0145));
#417=CARTESIAN_POINT('',(0.,-0.01995,0.0145));
#418=CARTESIAN_POINT('',(-0.01695,-0.01995,0.0145));
#419=CARTESIAN_POINT('',(-0.01695,-0.01995,0.0145));
#420=CARTESIAN_POINT('',(0.01995,3.46944695195361E-18,0.0145));
#421=CARTESIAN_POINT('',(0.01995,3.46944695195361E-18,0.));
#422=CARTESIAN_POINT('',(0.01995,-0.01695,0.));
#423=CARTESIAN_POINT('',(0.01995,0.01695,0.));
#424=CARTESIAN_POINT('',(0.01995,0.01695,0.0145));
#425=CARTESIAN_POINT('',(0.01995,0.01695,0.0145));
#426=CARTESIAN_POINT('',(0.01995,3.46944695195361E-18,0.0145));
#427=CARTESIAN_POINT('',(0.01995,-0.01695,0.0145));
#428=CARTESIAN_POINT('',(0.01995,-0.01695,0.));
#429=CARTESIAN_POINT('',(0.,0.01995,0.0145));
#430=CARTESIAN_POINT('',(0.,0.01995,0.));
#431=CARTESIAN_POINT('',(0.01695,0.01995,0.));
#432=CARTESIAN_POINT('',(-0.01695,0.01995,0.));
#433=CARTESIAN_POINT('',(-0.01695,0.01995,0.0145));
#434=CARTESIAN_POINT('',(-0.01695,0.01995,0.0145));
#435=CARTESIAN_POINT('',(0.,0.01995,0.0145));
#436=CARTESIAN_POINT('',(0.01695,0.01995,0.0145));
#437=CARTESIAN_POINT('',(0.01695,0.01995,0.0145));
#438=CARTESIAN_POINT('',(-0.01575,-0.01575,0.0145));
#439=CARTESIAN_POINT('',(-0.01575,-0.01575,0.0145));
#440=CARTESIAN_POINT('',(-0.01355,-0.01575,0.0145));
#441=CARTESIAN_POINT('',(-0.01575,-0.01575,0.));
#442=CARTESIAN_POINT('',(-0.01355,-0.01575,0.));
#443=CARTESIAN_POINT('',(0.01575,-0.01575,0.0145));
#444=CARTESIAN_POINT('',(0.01575,-0.01575,0.0145));
#445=CARTESIAN_POINT('',(0.01795,-0.01575,0.0145));
#446=CARTESIAN_POINT('',(0.01575,-0.01575,0.));
#447=CARTESIAN_POINT('',(0.01795,-0.01575,0.));
#448=CARTESIAN_POINT('',(0.01575,0.01575,0.0145));
#449=CARTESIAN_POINT('',(0.01575,0.01575,0.0145));
#450=CARTESIAN_POINT('',(0.01795,0.01575,0.0145));
#451=CARTESIAN_POINT('',(0.01575,0.01575,0.));
#452=CARTESIAN_POINT('',(0.01795,0.01575,0.));
#453=CARTESIAN_POINT('',(1.21430643318376E-17,-2.08166817117217E-17,0.0145));
#454=CARTESIAN_POINT('',(1.21430643318376E-17,-2.08166817117217E-17,0.0145));
#455=CARTESIAN_POINT('',(0.01845,-2.08166817117217E-17,0.0145));
#456=CARTESIAN_POINT('',(1.21430643318376E-17,-2.08166817117217E-17,0.));
#457=CARTESIAN_POINT('',(0.01845,-2.08166817117217E-17,0.));
#458=CARTESIAN_POINT('',(-0.01575,0.01575,0.0145));
#459=CARTESIAN_POINT('',(-0.01575,0.01575,0.0145));
#460=CARTESIAN_POINT('',(-0.01355,0.01575,0.0145));
#461=CARTESIAN_POINT('',(-0.01575,0.01575,0.));
#462=CARTESIAN_POINT('',(-0.01355,0.01575,0.));
#463=CARTESIAN_POINT('',(-0.01995,-3.46944695195361E-18,0.0145));
#464=CARTESIAN_POINT('',(-0.01995,-3.46944695195361E-18,0.0145));
#465=CARTESIAN_POINT('',(-0.01995,-0.01695,0.0145));
#466=CARTESIAN_POINT('',(-0.01995,0.01695,0.0145));
#467=CARTESIAN_POINT('',(-0.01995,0.01695,0.));
#468=CARTESIAN_POINT('',(-0.01995,0.01695,0.));
#469=CARTESIAN_POINT('',(-0.01995,-3.46944695195361E-18,0.));
#470=CARTESIAN_POINT('',(-0.01995,-0.01695,0.));
#471=CARTESIAN_POINT('',(-0.01995,-0.01695,0.0145));
#472=CARTESIAN_POINT('',(0.,0.,0.0145));
#473=CARTESIAN_POINT('',(-0.01695,0.01695,0.0145));
#474=CARTESIAN_POINT('',(-0.01695,-0.01695,0.0145));
#475=CARTESIAN_POINT('',(0.01695,-0.01695,0.0145));
#476=CARTESIAN_POINT('',(0.01695,0.01695,0.0145));
#477=CARTESIAN_POINT('',(0.,0.,0.));
#478=CARTESIAN_POINT('',(-0.01695,0.01695,0.));
#479=CARTESIAN_POINT('',(0.01695,0.01695,0.));
#480=CARTESIAN_POINT('',(0.01695,-0.01695,0.));
#481=CARTESIAN_POINT('',(-0.01695,-0.01695,0.));
#482=CARTESIAN_POINT('',(-0.01695,0.01695,0.0145));
#483=CARTESIAN_POINT('',(0.01695,0.01695,0.0145));
#484=CARTESIAN_POINT('',(0.01695,-0.01695,0.0145));
#485=CARTESIAN_POINT('',(-0.01695,-0.01695,0.0145));
#486=MECHANICAL_DESIGN_GEOMETRIC_PRESENTATION_REPRESENTATION('',(#281),
#487);
#487=(
GEOMETRIC_REPRESENTATION_CONTEXT(3)
GLOBAL_UNCERTAINTY_ASSIGNED_CONTEXT((#488))
GLOBAL_UNIT_ASSIGNED_CONTEXT((#491,#490,#489))
REPRESENTATION_CONTEXT('Part 1','TOP_LEVEL_ASSEMBLY_PART')
);
#488=UNCERTAINTY_MEASURE_WITH_UNIT(LENGTH_MEASURE(1.E-8),#491,
'DISTANCE_ACCURACY_VALUE','Maximum Tolerance applied to model');
#489=(
NAMED_UNIT(*)
SI_UNIT($,.STERADIAN.)
SOLID_ANGLE_UNIT()
);
#490=(
NAMED_UNIT(*)
PLANE_ANGLE_UNIT()
SI_UNIT($,.RADIAN.)
);
#491=(
LENGTH_UNIT()
NAMED_UNIT(*)
SI_UNIT($,.METRE.)
);
#492=PRODUCT_DEFINITION_SHAPE('','',#493);
#493=PRODUCT_DEFINITION('','',#495,#494);
#494=PRODUCT_DEFINITION_CONTEXT('',#501,'design');
#495=PRODUCT_DEFINITION_FORMATION_WITH_SPECIFIED_SOURCE('','',#497,
 .NOT_KNOWN.);
#496=PRODUCT_RELATED_PRODUCT_CATEGORY('','',(#497));
#497=PRODUCT('Part 1','Part 1','Part 1',(#499));
#498=PRODUCT_CATEGORY('','');
#499=PRODUCT_CONTEXT('',#501,'mechanical');
#500=APPLICATION_PROTOCOL_DEFINITION('international standard',
'ap242_managed_model_based_3d_engineering',2020,#501);
#501=APPLICATION_CONTEXT('managed model based 3d engineering');
ENDSEC;
END-ISO-10303-21;
